<svg width="24" height="26" viewBox="0 0 24 26" xmlns="http://www.w3.org/2000/svg">
<path d="M9 0.5H15C15.663 0.5 16.2987 0.763581 16.7676 1.23242C17.2364 1.70126 17.5 2.33696 17.5 3V4.5H23C23.1326 4.5 23.2597 4.55272 23.3535 4.64648C23.4473 4.74025 23.5 4.86739 23.5 5C23.5 5.13261 23.4473 5.25975 23.3535 5.35352C23.2597 5.44728 23.1326 5.5 23 5.5H21.5V24C21.5 24.3978 21.3419 24.7792 21.0605 25.0605C20.7792 25.3419 20.3978 25.5 20 25.5H4C3.60218 25.5 3.22076 25.3419 2.93945 25.0605C2.65815 24.7792 2.5 24.3978 2.5 24V5.5H1C0.867392 5.5 0.740253 5.44728 0.646484 5.35352C0.552716 5.25975 0.5 5.13261 0.5 5L0.509766 4.90234C0.528936 4.80611 0.576081 4.71689 0.646484 4.64648C0.740253 4.55272 0.867392 4.5 1 4.5H6.5V3C6.5 2.33696 6.76358 1.70126 7.23242 1.23242C7.70126 0.763581 8.33696 0.5 9 0.5ZM3.5 24.5H20.5V5.5H3.5V24.5ZM9 10.5C9.13261 10.5 9.25975 10.5527 9.35352 10.6465C9.44728 10.7403 9.5 10.8674 9.5 11V19C9.5 19.1326 9.44728 19.2597 9.35352 19.3535C9.25975 19.4473 9.13261 19.5 9 19.5C8.86739 19.5 8.74025 19.4473 8.64648 19.3535C8.55272 19.2597 8.5 19.1326 8.5 19V11C8.5 10.8674 8.55272 10.7403 8.64648 10.6465C8.74025 10.5527 8.86739 10.5 9 10.5ZM15 10.5C15.1326 10.5 15.2597 10.5527 15.3535 10.6465C15.4473 10.7403 15.5 10.8674 15.5 11V19C15.5 19.1326 15.4473 19.2597 15.3535 19.3535C15.2597 19.4473 15.1326 19.5 15 19.5C14.8674 19.5 14.7403 19.4473 14.6465 19.3535C14.5527 19.2597 14.5 19.1326 14.5 19V11C14.5 10.8674 14.5527 10.7403 14.6465 10.6465C14.7403 10.5527 14.8674 10.5 15 10.5ZM9 1.5C8.60217 1.5 8.22076 1.65815 7.93945 1.93945C7.65815 2.22076 7.5 2.60217 7.5 3V4.5H16.5V3C16.5 2.60218 16.3419 2.22076 16.0605 1.93945C15.7792 1.65815 15.3978 1.5 15 1.5H9Z" />
</svg>
